<?xml version="1.0" standalone="no"?>
<!DOCTYPE svg PUBLIC "-//W3C//DTD SVG 20010904//EN"
 "http://www.w3.org/TR/2001/REC-SVG-20010904/DTD/svg10.dtd">
<svg version="1.0" xmlns="http://www.w3.org/2000/svg"
 width="800.000000pt" height="400.000000pt" viewBox="0 0 800.000000 400.000000"
 preserveAspectRatio="xMidYMid meet">

<g transform="translate(0.000000,400.000000) scale(0.100000,-0.100000)"
fill="#000000" stroke="none">
<path d="M2927 3423 c-4 -3 -7 -44 -7 -90 l0 -83 969 0 c874 0 969 2 975 16 3
9 6 20 6 25 0 5 -337 9 -841 9 l-840 0 3 43 3 42 840 0 840 0 3 -30 c4 -29 4
-28 28 20 13 28 24 51 24 53 0 5 -1997 1 -2003 -5z m136 -88 c7 -17 -8 -29
-28 -21 -17 6 -9 36 10 36 7 0 15 -7 18 -15z m64 0 c7 -20 -2 -29 -21 -22 -9
4 -13 13 -10 22 8 19 23 19 31 0z"/>
<path d="M3310 3094 c-19 -8 -43 -23 -53 -32 -48 -43 -76 -150 -60 -226 12
-58 33 -59 33 -2 0 43 2 46 25 46 30 0 95 31 115 55 7 9 26 23 41 30 25 13 27
13 32 -5 3 -12 14 -20 25 -20 41 0 65 -32 66 -90 1 -67 21 -78 33 -18 12 60
-1 141 -31 192 -44 75 -143 106 -226 70z"/>
<path d="M2634 2352 c-24 -15 -34 -54 -34 -126 l0 -76 -245 0 c-200 0 -251 -3
-275 -15 -61 -31 -60 -24 -60 -587 0 -552 -1 -542 53 -582 27 -20 43 -21 278
-24 l249 -3 0 -154 c0 -84 3 -161 6 -170 17 -43 40 -45 499 -45 l435 0 0 -109
c0 -138 -2 -141 -109 -141 -46 0 -82 -5 -89 -12 -18 -18 -15 -85 4 -92 9 -3
260 -6 558 -6 408 0 545 3 554 12 7 7 12 26 12 43 0 46 -15 55 -98 55 -112 0
-112 0 -112 135 l0 115 210 0 210 0 0 -40 c0 -52 21 -93 55 -108 19 -9 141
-12 443 -12 396 0 419 1 449 20 52 31 55 55 51 467 l-3 373 -33 32 -32 33
-170 3 -170 4 0 489 c0 476 -1 490 -20 509 -18 18 -33 20 -165 20 l-145 0 0
-60 0 -60 105 0 105 0 -2 -452 -3 -453 -185 -2 c-102 -1 -193 -2 -203 -2 -10
-1 -32 -14 -48 -30 -27 -27 -29 -35 -29 -103 l0 -73 -38 44 c-20 25 -45 54
-54 65 -17 21 -17 21 -55 -22 l-38 -43 -89 106 c-85 101 -91 105 -107 88 -9
-10 -81 -97 -159 -193 l-142 -175 338 -5 339 -5 0 -145 0 -145 -977 -3 -978
-2 0 125 0 125 293 0 c327 0 342 3 379 71 17 31 18 69 18 537 0 547 1 536 -56
581 -26 20 -38 21 -330 21 l-304 0 0 45 0 45 100 0 100 0 0 60 0 60 -137 0
c-76 0 -143 -4 -149 -8z m188 -544 l3 -213 33 -3 32 -3 0 -215 c0 -148 -3
-214 -11 -214 -6 0 -29 -16 -52 -35 l-41 -35 -260 2 -261 3 -3 43 c-4 56 10
72 64 72 24 0 44 5 44 10 0 6 -20 10 -44 10 -54 0 -68 16 -64 72 l3 43 48 3
c32 2 47 8 47 17 0 9 -15 15 -47 17 l-48 3 0 55 0 55 53 3 c36 2 52 7 52 17 0
10 -16 15 -52 17 l-53 3 -3 50 c-5 72 2 75 189 75 l158 0 25 33 c24 31 26 42
26 136 0 104 6 128 43 169 16 17 31 22 69 22 l48 0 2 -212z m2227 -658 c19 -5
52 -26 72 -46 l38 -37 46 41 c74 65 154 68 222 9 39 -34 72 -97 73 -137 0 -66
-21 -99 -176 -271 -85 -96 -159 -174 -163 -174 -11 0 -299 322 -314 352 -23
46 -27 89 -12 140 16 54 52 94 105 117 42 18 64 19 109 6z"/>
</g>
</svg>
